# xmcd
#
# Track frame offsets: 
#        150
#        19468
#        42920
#        58368
#        76241
#        96658
#        124294
#        141246
#        154815
#        171271
#        191093
#        212523
#        229057
#        243815
#        266058
#        283872
#        300991
#        319212
#
# Disc length: 4789 seconds
#
# Revision: 1
# Processed by: cddbd v1.5.2PL0 Copyright (c) Steve Scherf et al.
# Submitted via: ExactAudioCopy v1.3
#
DISCID=0e12b312
DTITLE=Various Artist - Akella Presents - vol.39 - Rockin' Blues  CD1
DYEAR=2014
DGENRE=Rockin' Blues
TTITLE0=James Buddy Rogers - I'm On The Road Again
TTITLE1=Shaggy Dogs - How I Feel
TTITLE2=Jim Suhler - Leave My Blues Behind
TTITLE3=Voronofff - La Boheme
TTITLE4=Kevin Selfe - Dancing Girl
TTITLE5=Buzztown - Sons
TTITLE6=Johnny Tornado's Stormriders - Intentions Were Good
TTITLE7=The Hoodoos - Crazy Little Dancin' Queen
TTITLE8=Jo Hell - Get Real High
TTITLE9=Trampled Under Foot - Evil Train
TTITLE10=Doug Varty - Feel Free
TTITLE11=Cold Chisel - Everybody
TTITLE12=Hot and Nasty - Catch Us All
TTITLE13=Kim Simmonds and Savoy Brown - Nuthin' Like The Blues
TTITLE14=Zed Head - Cheapseats
TTITLE15=Honey Island Swamp Band - Cast The First Stone
TTITLE16=Ben Prestage - Someday Baby
TTITLE17=Rusty Wright Band - Pen Or Sword
EXTD=
EXTT0=
EXTT1=
EXTT2=
EXTT3=
EXTT4=
EXTT5=
EXTT6=
EXTT7=
EXTT8=
EXTT9=
EXTT10=
EXTT11=
EXTT12=
EXTT13=
EXTT14=
EXTT15=
EXTT16=
EXTT17=
PLAYORDER=
